<?xml version="1.0" standalone="no"?>
<!DOCTYPE svg PUBLIC "-//W3C//DTD SVG 20010904//EN"
 "http://www.w3.org/TR/2001/REC-SVG-20010904/DTD/svg10.dtd">
<svg version="1.0" xmlns="http://www.w3.org/2000/svg"
 width="512.000000pt" height="512.000000pt" viewBox="0 0 512.000000 512.000000"
 preserveAspectRatio="xMidYMid meet">

<g transform="translate(0.000000,512.000000) scale(0.100000,-0.100000)"
fill="#000000" stroke="none">
<path d="M2370 5099 c-188 -40 -349 -126 -486 -263 -139 -140 -224 -299 -263
-493 -17 -82 -21 -139 -21 -302 l0 -201 -415 0 c-333 0 -422 -3 -449 -14 -34
-14 -79 -65 -89 -101 -3 -11 -79 -823 -168 -1806 -160 -1762 -162 -1786 -144
-1823 10 -20 34 -49 53 -64 l35 -27 2137 0 2137 0 35 27 c19 15 43 44 53 64
18 37 16 61 -144 1823 -89 983 -165 1795 -168 1806 -10 36 -55 87 -89 101 -27
11 -116 14 -449 14 l-415 0 0 201 c0 163 -4 220 -21 302 -39 194 -124 353
-263 493 -140 139 -299 224 -493 263 -126 26 -248 26 -373 0z m324 -314 c183
-39 352 -170 434 -336 60 -121 72 -188 72 -416 l0 -193 -640 0 -640 0 0 193
c0 228 12 295 72 416 126 256 420 396 702 336z m-1094 -1447 l-1 -183 -34 -25
c-78 -56 -132 -179 -122 -277 28 -268 353 -386 542 -198 47 48 85 129 92 198
10 98 -44 221 -122 277 l-34 25 -1 183 0 182 640 0 640 0 0 -182 -1 -183 -34
-25 c-78 -56 -132 -179 -122 -277 28 -268 353 -386 542 -198 47 48 85 129 92
198 10 98 -44 221 -122 277 l-34 25 -1 183 0 182 327 -2 328 -3 142 -1560 c78
-858 142 -1577 143 -1597 l0 -38 -1900 0 -1900 0 0 23 c-1 31 281 3149 286
3165 3 9 77 12 329 12 l325 0 0 -182z"/>
</g>
</svg>
